# xmcd CD database file
#
# Track frame offsets:
#	150
#	26786
#	41865
#	72615
#	101757
#	119650
#	145359
#	176364
#	203203
#	228824
#
# Disc length: 3429 seconds
#
# Revision: 1
# Processed by: cddbd v1.5.2PL0 Copyright (c) Steve Scherf et al.
# Submitted via: CDex 1.70beta2
#
DISCID=970d630a
DTITLE=Various Artist - Club Jazz a la Mode secondo
DYEAR=2006
DGENRE=Jazz
TTITLE0=Omerta Bossa - Isabelle Antena
TTITLE1=Sing Sing Sing feat. M. D'Avola - Jazbeat
TTITLE2=The Gods Of The Yoruba (belem) - Gerardo Frisina
TTITLE3=Tribute - SUMO
TTITLE4=Nobody But Him - Jefferson
TTITLE5=The Dawn (Radio Edit) - Jihad Muhammad
TTITLE6=Soy y Luna - Bossa Futura
TTITLE7=Fela Brasil feat. Domingo Patricio - Raw Artistic Soul
TTITLE8=Herbie's Habit - Morten Schantz Segment
TTITLE9=Bossafrica (Jazz Revenge Rework) - S-Tone Inc.
EXTD=YEAR: 2006
EXTT0=
EXTT1=
EXTT2=
EXTT3=
EXTT4=
EXTT5=
EXTT6=
EXTT7=
EXTT8=
EXTT9=
PLAYORDER=
